<svg xmlns="http://www.w3.org/2000/svg" width="26" height="49" fill="none" viewBox="0 0 26 49">
  <path fill="#fff" fill-rule="evenodd" d="M25.65 14.32c.039-.327.065-.656.079-.989l.01-.152h-.005c.003-.12.005-.243.005-.365 0-6.93-5.618-12.549-12.549-12.549C6.26.265.641 5.883.641 12.814c0 .122.002.244.005.365H.611c.552 8.078 3.852 26.404 12.64 35.086C21.546 39.97 24.892 22.872 25.65 14.32Zm-12.475 8.683c5.525 0 10.003-4.479 10.003-10.004 0-5.524-4.478-10.003-10.003-10.003S3.172 7.475 3.172 12.999c0 5.525 4.478 10.004 10.003 10.004Z" clip-rule="evenodd"/>
  <path fill="#fff" d="M17.701 13.031a4.526 4.526 0 1 1-9.052 0 4.526 4.526 0 0 1 9.052 0Z"/>
</svg>
