<svg xmlns="http://www.w3.org/2000/svg" width="44" height="49" fill="none" viewBox="0 0 44 49">
  <path fill="#fff" d="M43.128 22.995a23.944 23.944 0 0 1-.77 5.16c-.445 1.694-1.121 3.225-2.028 4.594a10.27 10.27 0 0 1-3.414 3.286c-1.386.821-3.063 1.232-5.031 1.232-1.112 0-2.113-.197-3.003-.59a6.276 6.276 0 0 1-2.259-1.67c-.616-.735-1.07-1.616-1.36-2.643-.291-1.027-.394-2.182-.309-3.465l1.31-14.785h5.133l-1.283 14.785c-.103.89-.094 1.617.026 2.182.136.564.342 1 .616 1.309.29.308.616.53.975.667.377.12.744.18 1.104.18.821 0 1.574-.257 2.259-.77.684-.514 1.274-1.224 1.77-2.13.497-.908.89-1.969 1.181-3.184.291-1.232.454-2.558.488-3.978.12-2.276.009-4.381-.334-6.315-.325-1.933-.89-3.662-1.694-5.185-.787-1.54-1.814-2.84-3.08-3.901-1.266-1.078-2.772-1.9-4.517-2.465-1.746-.581-3.74-.872-5.981-.872-2.105 0-4.047.325-5.827.975a15.262 15.262 0 0 0-4.749 2.798c-1.386 1.215-2.584 2.67-3.593 4.364-.993 1.677-1.78 3.55-2.362 5.621-.564 2.053-.898 4.261-1 6.622-.12 2.482.008 4.74.384 6.777.394 2.036 1.018 3.825 1.874 5.365.873 1.557 1.96 2.857 3.26 3.901 1.3 1.044 2.815 1.831 4.543 2.362 1.729.53 3.654.795 5.776.795 1.488 0 3.003-.17 4.543-.513 1.557-.325 2.866-.744 3.927-1.258l.976 3.825c-1.198.77-2.696 1.343-4.492 1.72-1.78.376-3.466.565-5.057.565-2.72 0-5.202-.334-7.444-1.002-2.225-.65-4.192-1.625-5.904-2.926-1.71-1.283-3.14-2.875-4.286-4.774-1.13-1.9-1.968-4.09-2.516-6.571-.53-2.481-.736-5.237-.616-8.265.12-2.807.556-5.45 1.31-7.932.752-2.481 1.779-4.732 3.08-6.75a21.645 21.645 0 0 1 4.671-5.212 20.39 20.39 0 0 1 6.16-3.388C17.861.75 20.343.356 23.03.356c2.67 0 5.091.35 7.265 1.052 2.19.701 4.107 1.711 5.75 3.029a16.914 16.914 0 0 1 4.106 4.748c1.095 1.848 1.891 3.936 2.387 6.263.497 2.328.694 4.843.59 7.547ZM17.203 25.69c-.086 1.13-.077 2.13.025 3.003.103.873.3 1.609.59 2.208.292.599.668 1.052 1.13 1.36.48.291 1.044.437 1.694.437.36 0 .753-.086 1.181-.257.428-.188.864-.496 1.31-.924.444-.428.863-1.018 1.257-1.771.41-.77.753-1.737 1.027-2.9l2.181 2.592c-.393 1.283-.88 2.413-1.463 3.388-.582.958-1.249 1.763-2.002 2.413a7.668 7.668 0 0 1-2.413 1.463 8.024 8.024 0 0 1-2.823.488c-1.25 0-2.362-.265-3.337-.796-.976-.548-1.788-1.326-2.439-2.336-.65-1.01-1.12-2.216-1.411-3.62-.274-1.42-.326-3.002-.154-4.748.188-1.745.53-3.362 1.026-4.851.497-1.489 1.113-2.815 1.848-3.979.736-1.18 1.575-2.181 2.516-3.003a10.336 10.336 0 0 1 3.106-1.9 9.641 9.641 0 0 1 3.49-.641c1.969 0 3.517.282 4.647.847a22.579 22.579 0 0 1 3.208 1.95L28.78 17.63c-.496-.445-1.146-.872-1.95-1.283-.788-.428-1.729-.642-2.824-.642-1.01 0-1.9.214-2.67.642-.753.428-1.412 1.07-1.976 1.925-.548.838-1.001 1.882-1.36 3.132-.36 1.232-.625 2.66-.796 4.286Z"/>
</svg>
