<svg xmlns="http://www.w3.org/2000/svg" width="50" height="49" fill="none" viewBox="0 0 50 49">
  <path fill="#fff" fill-rule="evenodd" d="M30.611 47.999c10.769-2.5 18.793-12.156 18.793-23.685 0-13.429-10.886-24.315-24.315-24.315C11.661-.001.774 10.885.774 24.314c0 11.297 7.704 20.794 18.145 23.525v-6.322h-4.394a.706.706 0 0 1-.394-.12.717.717 0 0 1-.157-.118l-4.975-4.974h-.66a.705.705 0 0 1-.708-.708v-.308c0-.391.316-.708.707-.708h1.053a.704.704 0 0 1 .454.165c.052.03.1.067.145.112l4.42 4.419a.709.709 0 0 1 .115-.01h4.911a2.84 2.84 0 0 1 1.132-.941l-.002-.058V35.81c-6.138-1.325-10.618-5.481-10.618-10.403 0-2.181.88-4.213 2.396-5.914l.086-6.608a.708.708 0 0 1 1.054-.609l5.573 3.121a19.553 19.553 0 0 1 5.71-.834c1.619 0 3.177.19 4.634.54l.032-.023.02-.015.046-.027 6.351-3.556a.708.708 0 0 1 1.053.608l.095 7.192c1.633 1.743 2.589 3.852 2.589 6.125 0 4.922-4.48 9.078-10.618 10.403v2.46l-.003.057a2.841 2.841 0 0 1 1.588 1.984c.04.19.062.387.062.589v7.022a.72.72 0 0 1-.005.078Zm-5.443.63h-.158.158Z" clip-rule="evenodd"/>
</svg>
