<svg xmlns="http://www.w3.org/2000/svg" width="48" height="49" fill="none" viewBox="0 0 48 49">
  <path fill="#fff" d="M10.497 13.938v34.417H1.304V13.938h9.193ZM.73 4.968c0-1.336.467-2.439 1.4-3.308C3.064.79 4.315.355 5.885.355c1.548 0 2.788.435 3.721 1.305.954.87 1.432 1.972 1.432 3.308 0 1.336-.478 2.439-1.432 3.308-.933.87-2.173 1.304-3.721 1.304-1.57 0-2.82-.435-3.754-1.304-.933-.87-1.4-1.972-1.4-3.308Zm26.308 16.318v27.07h-9.161V13.938h8.588l.573 7.348Zm-1.336 8.652H23.22c0-2.545.33-4.835.987-6.87.657-2.058 1.58-3.807 2.767-5.25 1.188-1.463 2.598-2.576 4.23-3.34 1.655-.784 3.5-1.176 5.535-1.176 1.612 0 3.086.233 4.422.7a8.46 8.46 0 0 1 3.435 2.226c.976 1.018 1.718 2.365 2.227 4.04.53 1.675.795 3.722.795 6.14v21.947h-9.224v-21.98c0-1.526-.213-2.714-.637-3.562-.424-.848-1.05-1.442-1.876-1.782-.806-.36-1.803-.54-2.99-.54-1.23 0-2.301.244-3.213.731a6.383 6.383 0 0 0-2.227 2.036c-.572.848-1.007 1.845-1.304 2.99a14.662 14.662 0 0 0-.445 3.69Z"/>
</svg>
