<svg xmlns="http://www.w3.org/2000/svg" width="49" height="49" fill="none" viewBox="0 0 49 49">
  <path fill="#fff" fill-rule="evenodd" d="M46.038 12.926C42.049 5.5 34.264.414 25.278.268V.265h-.714v.002C11.454.437.88 11.116.88 24.265c0 13.255 10.745 24 24 24 13.148 0 23.826-10.572 23.998-23.68h.006v-.713h-.007A23.883 23.883 0 0 0 46.05 12.95l.006-.008-.002-.001-.005-.004-.007-.006-.005-.005Zm-21.474 11.66v14.72c-5.814-.022-10.145-.65-13.282-1.421-.773-3.139-1.403-7.475-1.425-13.3h14.707Zm-13.08 14.08c3.164.745 7.439 1.332 13.08 1.354v7.53a23.178 23.178 0 0 1-10.384-2.596l.01-.009-.003-.004-.004-.005-.011-.014a9.432 9.432 0 0 1-.633-.97c-.403-.708-.946-1.822-1.491-3.43a30.79 30.79 0 0 1-.564-1.855Zm-2.34-14.08c.02 5.65.61 9.931 1.356 13.097a30.872 30.872 0 0 1-1.87-.567c-1.607-.545-2.72-1.089-3.429-1.492a9.455 9.455 0 0 1-.768-.482 4.647 4.647 0 0 1-.216-.161l-.008-.007-.008.008a23.176 23.176 0 0 1-2.606-10.397h7.549ZM8.4 37.79c-1.585-.538-2.715-1.078-3.464-1.497a23.405 23.405 0 0 0 7.935 7.927c-.42-.75-.961-1.88-1.5-3.47a32.106 32.106 0 0 1-.677-2.279c-.852-.22-1.615-.45-2.294-.68Zm29.962.855c-3.157.75-7.433 1.346-13.085 1.373v7.53a23.173 23.173 0 0 0 10.413-2.654 4.72 4.72 0 0 0 .13-.175 9.46 9.46 0 0 0 .482-.768c.403-.708.946-1.822 1.491-3.43a30.92 30.92 0 0 0 .569-1.876Zm.202-.783c-3.13.778-7.46 1.415-13.287 1.443v-14.72h14.706c-.021 5.81-.649 10.14-1.42 13.277Zm.588.587c-.221.855-.452 1.62-.683 2.302-.522 1.536-1.045 2.645-1.459 3.394a23.405 23.405 0 0 0 7.812-7.851c-.75.419-1.879.959-3.463 1.496-.656.223-1.39.445-2.207.659Zm.194-.79c.744-3.164 1.33-7.437 1.35-13.075h7.467a23.178 23.178 0 0 1-2.605 10.397l-.007-.009-.009.008a4.703 4.703 0 0 1-.216.162c-.161.114-.414.28-.768.481-.708.403-1.822.947-3.429 1.492-.538.182-1.13.365-1.783.543Zm1.35-13.788h7.466a23.174 23.174 0 0 0-2.684-10.476 9.432 9.432 0 0 0-.88-.563c-.708-.403-1.822-.947-3.428-1.492a30.775 30.775 0 0 0-1.848-.56c.751 3.157 1.348 7.435 1.374 13.09ZM38.54 10.578c-3.13-.772-7.456-1.402-13.262-1.427v14.72h14.706c-.028-5.83-.666-10.164-1.444-13.293Zm-.204-.783c-3.158-.745-7.426-1.333-13.058-1.357V.982a23.174 23.174 0 0 1 10.4 2.646l.013.016c.028.037.072.095.13.176.114.162.28.415.482.769.403.708.946 1.822 1.491 3.429.182.536.364 1.127.542 1.777Zm.79.195c.844.219 1.6.447 2.274.676 1.497.508 2.587 1.017 3.335 1.426a23.407 23.407 0 0 0-7.732-7.713c.415.75.942 1.863 1.467 3.41.222.654.444 1.386.656 2.201ZM24.564 23.872H9.857c.028-5.831.667-10.165 1.445-13.294 3.13-.772 7.455-1.402 13.262-1.427v14.72Zm0-15.434c-5.632.023-9.9.612-13.058 1.357.177-.65.36-1.24.541-1.777.546-1.607 1.09-2.721 1.492-3.43.201-.353.368-.606.482-.768a4.545 4.545 0 0 1 .162-.216l.004-.004.003-.004-.017-.015A23.177 23.177 0 0 1 24.564.98v7.457ZM10.715 9.99c.213-.815.435-1.547.657-2.201.543-1.6 1.088-2.735 1.508-3.485a23.406 23.406 0 0 0-7.897 7.855c.75-.418 1.877-.957 3.458-1.493.674-.23 1.43-.457 2.274-.676ZM4.24 13.473a23.174 23.174 0 0 0-2.643 10.399h7.547c.027-5.656.623-9.934 1.374-13.092-.677.184-1.292.373-1.848.561-1.606.546-2.72 1.089-3.428 1.492a9.426 9.426 0 0 0-.769.482 4.538 4.538 0 0 0-.215.161l-.009.007-.01-.01Z" clip-rule="evenodd"/>
</svg>
